<?xml version="1.0" encoding="utf-8"?>
<!-- Generator: Adobe Illustrator 16.0.0, SVG Export Plug-In . SVG Version: 6.00 Build 0)  -->
<!DOCTYPE svg PUBLIC "-//W3C//DTD SVG 1.1//EN" "http://www.w3.org/Graphics/SVG/1.1/DTD/svg11.dtd">
<svg version="1.1" id="Layer_1" xmlns="http://www.w3.org/2000/svg" xmlns:xlink="http://www.w3.org/1999/xlink" x="0px" y="0px"
	 width="584.41px" height="584.41px" viewBox="19.5 109.5 584.41 584.41" enable-background="new 19.5 109.5 584.41 584.41"
	 xml:space="preserve">
<path stroke="#000000" stroke-width="12" stroke-miterlimit="10" d="M595.425,667.575L425.85,498c36.975-40.8,58.65-94.35,58.65-153
	c0-126.225-103.275-229.5-229.5-229.5C128.775,115.5,25.5,218.775,25.5,345c0,126.225,103.274,229.5,229.5,229.5
	c58.649,0,112.199-22.95,153-58.65l169.574,169.575L595.425,667.575z M51,345c0-112.2,91.8-204,204-204c112.199,0,204,91.8,204,204
	s-91.801,204-204,204C142.8,549,51,457.2,51,345z"/>
</svg>
