<?xml version="1.0" encoding="utf-8"?>
<!-- Generator: Adobe Illustrator 16.0.0, SVG Export Plug-In . SVG Version: 6.00 Build 0)  -->
<!DOCTYPE svg PUBLIC "-//W3C//DTD SVG 1.1//EN" "http://www.w3.org/Graphics/SVG/1.1/DTD/svg11.dtd">
<svg version="1.1" id="Layer_1" xmlns="http://www.w3.org/2000/svg" xmlns:xlink="http://www.w3.org/1999/xlink" x="0px" y="0px"
	 width="380.945px" height="309.697px" viewBox="115.587 332.537 380.945 309.697"
	 enable-background="new 115.587 332.537 380.945 309.697" xml:space="preserve">
<path id="XMLID_22_" fill="#787878" d="M235.357,642.234c143.796,0,222.448-119.173,222.448-222.447c0-3.348,0-6.694-0.239-10.16
	c15.3-11.117,28.448-24.743,38.967-40.521c-14.224,6.335-29.404,10.519-44.943,12.312c16.376-9.801,28.567-25.102,34.425-43.27
	c-15.3,9.084-32.154,15.539-49.605,19.005c-29.644-31.437-79.13-32.991-110.566-3.347c-20.32,19.125-28.927,47.573-22.592,74.707
	c-62.873-3.108-121.443-32.871-161.128-81.64c-20.798,35.74-10.16,81.401,24.146,104.351c-12.431-0.358-24.623-3.706-35.501-9.802
	c0,0.358,0,0.598,0,0.956c0,37.175,26.297,69.209,62.754,76.62c-11.475,3.107-23.547,3.586-35.262,1.314
	c10.28,31.795,39.565,53.67,73.034,54.268c-27.731,21.754-61.917,33.588-97.06,33.588c-6.216,0-12.432-0.358-18.646-1.076
	C151.207,630.042,192.804,642.234,235.357,642.234"/>
</svg>
